<svg xmlns="http://www.w3.org/2000/svg" xmlns:xlink="http://www.w3.org/1999/xlink" width="500" zoomAndPan="magnify" viewBox="0 0 375 374.999991" height="500" preserveAspectRatio="xMidYMid meet" version="1.0"><defs><clipPath id="bffbd9981e"><path d="M 51.382812 51.382812 L 323.617188 51.382812 L 323.617188 323.617188 L 51.382812 323.617188 Z M 51.382812 51.382812 " clip-rule="nonzero"/></clipPath><clipPath id="238605599e"><path d="M 187.5 51.382812 C 112.324219 51.382812 51.382812 112.324219 51.382812 187.5 C 51.382812 262.675781 112.324219 323.617188 187.5 323.617188 C 262.675781 323.617188 323.617188 262.675781 323.617188 187.5 C 323.617188 112.324219 262.675781 51.382812 187.5 51.382812 Z M 187.5 51.382812 " clip-rule="nonzero"/></clipPath><clipPath id="3bf12ed924"><path d="M 0.382812 0.382812 L 272.617188 0.382812 L 272.617188 272.617188 L 0.382812 272.617188 Z M 0.382812 0.382812 " clip-rule="nonzero"/></clipPath><clipPath id="93d166df64"><path d="M 136.5 0.382812 C 61.324219 0.382812 0.382812 61.324219 0.382812 136.5 C 0.382812 211.675781 61.324219 272.617188 136.5 272.617188 C 211.675781 272.617188 272.617188 211.675781 272.617188 136.5 C 272.617188 61.324219 211.675781 0.382812 136.5 0.382812 Z M 136.5 0.382812 " clip-rule="nonzero"/></clipPath><linearGradient x1="128" gradientTransform="matrix(1.063423, 0, 0, 1.063423, 0.381849, 0.381845)" y1="255.999998" x2="128" gradientUnits="userSpaceOnUse" y2="0" id="66c5ec7e51"><stop stop-opacity="1" stop-color="rgb(38.42926%, 20.388794%, 12.548828%)" offset="0"/><stop stop-opacity="1" stop-color="rgb(38.549805%, 20.588684%, 12.789917%)" offset="0.00390625"/><stop stop-opacity="1" stop-color="rgb(38.671875%, 20.7901%, 13.031006%)" offset="0.0078125"/><stop stop-opacity="1" stop-color="rgb(38.792419%, 20.98999%, 13.270569%)" offset="0.0117187"/><stop stop-opacity="1" stop-color="rgb(38.912964%, 21.191406%, 13.511658%)" offset="0.015625"/><stop stop-opacity="1" stop-color="rgb(39.033508%, 21.391296%, 13.751221%)" offset="0.0195312"/><stop stop-opacity="1" stop-color="rgb(39.155579%, 21.592712%, 13.99231%)" offset="0.0234375"/><stop stop-opacity="1" stop-color="rgb(39.276123%, 21.792603%, 14.231873%)" offset="0.0273437"/><stop stop-opacity="1" stop-color="rgb(39.396667%, 21.994019%, 14.472961%)" offset="0.03125"/><stop stop-opacity="1" stop-color="rgb(39.517212%, 22.193909%, 14.712524%)" offset="0.0351562"/><stop stop-opacity="1" stop-color="rgb(39.639282%, 22.395325%, 14.953613%)" offset="0.0390625"/><stop stop-opacity="1" stop-color="rgb(39.759827%, 22.595215%, 15.194702%)" offset="0.0429687"/><stop stop-opacity="1" stop-color="rgb(39.881897%, 22.796631%, 15.435791%)" offset="0.046875"/><stop stop-opacity="1" stop-color="rgb(40.002441%, 22.996521%, 15.675354%)" offset="0.0507812"/><stop stop-opacity="1" stop-color="rgb(40.122986%, 23.197937%, 15.916443%)" offset="0.0546875"/><stop stop-opacity="1" stop-color="rgb(40.24353%, 23.397827%, 16.156006%)" offset="0.0585937"/><stop stop-opacity="1" stop-color="rgb(40.365601%, 23.599243%, 16.397095%)" offset="0.0625"/><stop stop-opacity="1" stop-color="rgb(40.486145%, 23.799133%, 16.636658%)" offset="0.0664062"/><stop stop-opacity="1" stop-color="rgb(40.608215%, 24.000549%, 16.877747%)" offset="0.0703125"/><stop stop-opacity="1" stop-color="rgb(40.72876%, 24.200439%, 17.118835%)" offset="0.0742187"/><stop stop-opacity="1" stop-color="rgb(40.849304%, 24.401855%, 17.359924%)" offset="0.078125"/><stop stop-opacity="1" stop-color="rgb(40.969849%, 24.601746%, 17.599487%)" offset="0.0820312"/><stop stop-opacity="1" stop-color="rgb(41.091919%, 24.803162%, 17.840576%)" offset="0.0859375"/><stop stop-opacity="1" stop-color="rgb(41.212463%, 25.003052%, 18.080139%)" offset="0.0898437"/><stop stop-opacity="1" stop-color="rgb(41.333008%, 25.204468%, 18.321228%)" offset="0.09375"/><stop stop-opacity="1" stop-color="rgb(41.453552%, 25.404358%, 18.560791%)" offset="0.0976562"/><stop stop-opacity="1" stop-color="rgb(41.575623%, 25.605774%, 18.80188%)" offset="0.101562"/><stop stop-opacity="1" stop-color="rgb(41.696167%, 25.805664%, 19.042969%)" offset="0.105469"/><stop stop-opacity="1" stop-color="rgb(41.818237%, 26.00708%, 19.284058%)" offset="0.109375"/><stop stop-opacity="1" stop-color="rgb(41.938782%, 26.208496%, 19.523621%)" offset="0.113281"/><stop stop-opacity="1" stop-color="rgb(42.059326%, 26.409912%, 19.764709%)" offset="0.117187"/><stop stop-opacity="1" stop-color="rgb(42.179871%, 26.609802%, 20.004272%)" offset="0.121094"/><stop stop-opacity="1" stop-color="rgb(42.301941%, 26.811218%, 20.245361%)" offset="0.125"/><stop stop-opacity="1" stop-color="rgb(42.422485%, 27.011108%, 20.484924%)" offset="0.128906"/><stop stop-opacity="1" stop-color="rgb(42.54303%, 27.212524%, 20.726013%)" offset="0.132812"/><stop stop-opacity="1" stop-color="rgb(42.663574%, 27.412415%, 20.967102%)" offset="0.136719"/><stop stop-opacity="1" stop-color="rgb(42.785645%, 27.613831%, 21.208191%)" offset="0.140625"/><stop stop-opacity="1" stop-color="rgb(42.906189%, 27.813721%, 21.447754%)" offset="0.144531"/><stop stop-opacity="1" stop-color="rgb(43.028259%, 28.015137%, 21.688843%)" offset="0.148437"/><stop stop-opacity="1" stop-color="rgb(43.148804%, 28.215027%, 21.928406%)" offset="0.152344"/><stop stop-opacity="1" stop-color="rgb(43.269348%, 28.416443%, 22.169495%)" offset="0.15625"/><stop stop-opacity="1" stop-color="rgb(43.389893%, 28.616333%, 22.409058%)" offset="0.160156"/><stop stop-opacity="1" stop-color="rgb(43.511963%, 28.817749%, 22.650146%)" offset="0.164062"/><stop stop-opacity="1" stop-color="rgb(43.632507%, 29.017639%, 22.891235%)" offset="0.167969"/><stop stop-opacity="1" stop-color="rgb(43.754578%, 29.219055%, 23.132324%)" offset="0.171875"/><stop stop-opacity="1" stop-color="rgb(43.875122%, 29.418945%, 23.371887%)" offset="0.175781"/><stop stop-opacity="1" stop-color="rgb(43.995667%, 29.620361%, 23.612976%)" offset="0.179687"/><stop stop-opacity="1" stop-color="rgb(44.116211%, 29.820251%, 23.852539%)" offset="0.183594"/><stop stop-opacity="1" stop-color="rgb(44.238281%, 30.021667%, 24.093628%)" offset="0.1875"/><stop stop-opacity="1" stop-color="rgb(44.358826%, 30.221558%, 24.333191%)" offset="0.191406"/><stop stop-opacity="1" stop-color="rgb(44.47937%, 30.422974%, 24.57428%)" offset="0.195312"/><stop stop-opacity="1" stop-color="rgb(44.599915%, 30.622864%, 24.813843%)" offset="0.199219"/><stop stop-opacity="1" stop-color="rgb(44.721985%, 30.82428%, 25.054932%)" offset="0.203125"/><stop stop-opacity="1" stop-color="rgb(44.842529%, 31.02417%, 25.296021%)" offset="0.207031"/><stop stop-opacity="1" stop-color="rgb(44.9646%, 31.225586%, 25.537109%)" offset="0.210937"/><stop stop-opacity="1" stop-color="rgb(45.085144%, 31.425476%, 25.776672%)" offset="0.214844"/><stop stop-opacity="1" stop-color="rgb(45.205688%, 31.626892%, 26.017761%)" offset="0.21875"/><stop stop-opacity="1" stop-color="rgb(45.326233%, 31.826782%, 26.257324%)" offset="0.222656"/><stop stop-opacity="1" stop-color="rgb(45.448303%, 32.028198%, 26.498413%)" offset="0.226562"/><stop stop-opacity="1" stop-color="rgb(45.568848%, 32.228088%, 26.737976%)" offset="0.230469"/><stop stop-opacity="1" stop-color="rgb(45.690918%, 32.429504%, 26.979065%)" offset="0.234375"/><stop stop-opacity="1" stop-color="rgb(45.811462%, 32.629395%, 27.220154%)" offset="0.238281"/><stop stop-opacity="1" stop-color="rgb(45.932007%, 32.830811%, 27.461243%)" offset="0.242187"/><stop stop-opacity="1" stop-color="rgb(46.052551%, 33.030701%, 27.700806%)" offset="0.246094"/><stop stop-opacity="1" stop-color="rgb(46.174622%, 33.232117%, 27.941895%)" offset="0.25"/><stop stop-opacity="1" stop-color="rgb(46.295166%, 33.432007%, 28.181458%)" offset="0.253906"/><stop stop-opacity="1" stop-color="rgb(46.41571%, 33.633423%, 28.422546%)" offset="0.257812"/><stop stop-opacity="1" stop-color="rgb(46.536255%, 33.833313%, 28.662109%)" offset="0.261719"/><stop stop-opacity="1" stop-color="rgb(46.658325%, 34.034729%, 28.903198%)" offset="0.265625"/><stop stop-opacity="1" stop-color="rgb(46.77887%, 34.234619%, 29.144287%)" offset="0.269531"/><stop stop-opacity="1" stop-color="rgb(46.90094%, 34.436035%, 29.385376%)" offset="0.273437"/><stop stop-opacity="1" stop-color="rgb(47.021484%, 34.635925%, 29.624939%)" offset="0.277344"/><stop stop-opacity="1" stop-color="rgb(47.142029%, 34.837341%, 29.866028%)" offset="0.28125"/><stop stop-opacity="1" stop-color="rgb(47.262573%, 35.037231%, 30.105591%)" offset="0.285156"/><stop stop-opacity="1" stop-color="rgb(47.384644%, 35.238647%, 30.34668%)" offset="0.289062"/><stop stop-opacity="1" stop-color="rgb(47.505188%, 35.438538%, 30.586243%)" offset="0.292969"/><stop stop-opacity="1" stop-color="rgb(47.625732%, 35.639954%, 30.827332%)" offset="0.296875"/><stop stop-opacity="1" stop-color="rgb(47.746277%, 35.839844%, 31.06842%)" offset="0.300781"/><stop stop-opacity="1" stop-color="rgb(47.868347%, 36.04126%, 31.309509%)" offset="0.304687"/><stop stop-opacity="1" stop-color="rgb(47.988892%, 36.24115%, 31.549072%)" offset="0.308594"/><stop stop-opacity="1" stop-color="rgb(48.110962%, 36.442566%, 31.790161%)" offset="0.3125"/><stop stop-opacity="1" stop-color="rgb(48.231506%, 36.642456%, 32.029724%)" offset="0.316406"/><stop stop-opacity="1" stop-color="rgb(48.352051%, 36.843872%, 32.270813%)" offset="0.320312"/><stop stop-opacity="1" stop-color="rgb(48.472595%, 37.043762%, 32.510376%)" offset="0.324219"/><stop stop-opacity="1" stop-color="rgb(48.594666%, 37.245178%, 32.751465%)" offset="0.328125"/><stop stop-opacity="1" stop-color="rgb(48.71521%, 37.445068%, 32.992554%)" offset="0.332031"/><stop stop-opacity="1" stop-color="rgb(48.83728%, 37.646484%, 33.233643%)" offset="0.335937"/><stop stop-opacity="1" stop-color="rgb(48.957825%, 37.846375%, 33.473206%)" offset="0.339844"/><stop stop-opacity="1" stop-color="rgb(49.078369%, 38.047791%, 33.714294%)" offset="0.34375"/><stop stop-opacity="1" stop-color="rgb(49.198914%, 38.247681%, 33.953857%)" offset="0.347656"/><stop stop-opacity="1" stop-color="rgb(49.320984%, 38.449097%, 34.194946%)" offset="0.351562"/><stop stop-opacity="1" stop-color="rgb(49.441528%, 38.648987%, 34.434509%)" offset="0.355469"/><stop stop-opacity="1" stop-color="rgb(49.562073%, 38.850403%, 34.675598%)" offset="0.359375"/><stop stop-opacity="1" stop-color="rgb(49.682617%, 39.050293%, 34.915161%)" offset="0.363281"/><stop stop-opacity="1" stop-color="rgb(49.804688%, 39.251709%, 35.15625%)" offset="0.367187"/><stop stop-opacity="1" stop-color="rgb(49.925232%, 39.451599%, 35.397339%)" offset="0.371094"/><stop stop-opacity="1" stop-color="rgb(50.047302%, 39.653015%, 35.638428%)" offset="0.375"/><stop stop-opacity="1" stop-color="rgb(50.167847%, 39.852905%, 35.877991%)" offset="0.378906"/><stop stop-opacity="1" stop-color="rgb(50.288391%, 40.054321%, 36.11908%)" offset="0.382812"/><stop stop-opacity="1" stop-color="rgb(50.408936%, 40.254211%, 36.358643%)" offset="0.386719"/><stop stop-opacity="1" stop-color="rgb(50.531006%, 40.455627%, 36.599731%)" offset="0.390625"/><stop stop-opacity="1" stop-color="rgb(50.65155%, 40.655518%, 36.839294%)" offset="0.394531"/><stop stop-opacity="1" stop-color="rgb(50.772095%, 40.856934%, 37.080383%)" offset="0.398437"/><stop stop-opacity="1" stop-color="rgb(50.892639%, 41.056824%, 37.321472%)" offset="0.402344"/><stop stop-opacity="1" stop-color="rgb(51.014709%, 41.25824%, 37.562561%)" offset="0.40625"/><stop stop-opacity="1" stop-color="rgb(51.135254%, 41.45813%, 37.802124%)" offset="0.410156"/><stop stop-opacity="1" stop-color="rgb(51.257324%, 41.659546%, 38.043213%)" offset="0.414062"/><stop stop-opacity="1" stop-color="rgb(51.377869%, 41.859436%, 38.282776%)" offset="0.417969"/><stop stop-opacity="1" stop-color="rgb(51.498413%, 42.060852%, 38.523865%)" offset="0.421875"/><stop stop-opacity="1" stop-color="rgb(51.618958%, 42.260742%, 38.763428%)" offset="0.425781"/><stop stop-opacity="1" stop-color="rgb(51.741028%, 42.462158%, 39.004517%)" offset="0.429687"/><stop stop-opacity="1" stop-color="rgb(51.861572%, 42.662048%, 39.245605%)" offset="0.433594"/><stop stop-opacity="1" stop-color="rgb(51.983643%, 42.863464%, 39.486694%)" offset="0.4375"/><stop stop-opacity="1" stop-color="rgb(52.104187%, 43.063354%, 39.726257%)" offset="0.441406"/><stop stop-opacity="1" stop-color="rgb(52.224731%, 43.264771%, 39.967346%)" offset="0.445312"/><stop stop-opacity="1" stop-color="rgb(52.345276%, 43.464661%, 40.206909%)" offset="0.449219"/><stop stop-opacity="1" stop-color="rgb(52.467346%, 43.666077%, 40.447998%)" offset="0.453125"/><stop stop-opacity="1" stop-color="rgb(52.587891%, 43.865967%, 40.687561%)" offset="0.457031"/><stop stop-opacity="1" stop-color="rgb(52.708435%, 44.067383%, 40.92865%)" offset="0.460937"/><stop stop-opacity="1" stop-color="rgb(52.828979%, 44.267273%, 41.169739%)" offset="0.464844"/><stop stop-opacity="1" stop-color="rgb(52.95105%, 44.468689%, 41.410828%)" offset="0.46875"/><stop stop-opacity="1" stop-color="rgb(53.071594%, 44.668579%, 41.650391%)" offset="0.472656"/><stop stop-opacity="1" stop-color="rgb(53.193665%, 44.869995%, 41.891479%)" offset="0.476562"/><stop stop-opacity="1" stop-color="rgb(53.314209%, 45.069885%, 42.131042%)" offset="0.480469"/><stop stop-opacity="1" stop-color="rgb(53.434753%, 45.271301%, 42.372131%)" offset="0.484375"/><stop stop-opacity="1" stop-color="rgb(53.555298%, 45.471191%, 42.611694%)" offset="0.488281"/><stop stop-opacity="1" stop-color="rgb(53.677368%, 45.672607%, 42.852783%)" offset="0.492187"/><stop stop-opacity="1" stop-color="rgb(53.797913%, 45.872498%, 43.093872%)" offset="0.496094"/><stop stop-opacity="1" stop-color="rgb(53.919983%, 46.073914%, 43.334961%)" offset="0.5"/><stop stop-opacity="1" stop-color="rgb(54.040527%, 46.273804%, 43.574524%)" offset="0.503906"/><stop stop-opacity="1" stop-color="rgb(54.161072%, 46.47522%, 43.815613%)" offset="0.507812"/><stop stop-opacity="1" stop-color="rgb(54.281616%, 46.67511%, 44.055176%)" offset="0.511719"/><stop stop-opacity="1" stop-color="rgb(54.403687%, 46.876526%, 44.296265%)" offset="0.515625"/><stop stop-opacity="1" stop-color="rgb(54.524231%, 47.076416%, 44.535828%)" offset="0.519531"/><stop stop-opacity="1" stop-color="rgb(54.644775%, 47.277832%, 44.776917%)" offset="0.523437"/><stop stop-opacity="1" stop-color="rgb(54.76532%, 47.477722%, 45.016479%)" offset="0.527344"/><stop stop-opacity="1" stop-color="rgb(54.88739%, 47.679138%, 45.257568%)" offset="0.53125"/><stop stop-opacity="1" stop-color="rgb(55.007935%, 47.879028%, 45.498657%)" offset="0.535156"/><stop stop-opacity="1" stop-color="rgb(55.130005%, 48.080444%, 45.739746%)" offset="0.539062"/><stop stop-opacity="1" stop-color="rgb(55.250549%, 48.280334%, 45.979309%)" offset="0.542969"/><stop stop-opacity="1" stop-color="rgb(55.371094%, 48.48175%, 46.220398%)" offset="0.546875"/><stop stop-opacity="1" stop-color="rgb(55.491638%, 48.681641%, 46.459961%)" offset="0.550781"/><stop stop-opacity="1" stop-color="rgb(55.613708%, 48.883057%, 46.70105%)" offset="0.554687"/><stop stop-opacity="1" stop-color="rgb(55.734253%, 49.082947%, 46.940613%)" offset="0.558594"/><stop stop-opacity="1" stop-color="rgb(55.854797%, 49.284363%, 47.181702%)" offset="0.5625"/><stop stop-opacity="1" stop-color="rgb(55.975342%, 49.484253%, 47.422791%)" offset="0.566406"/><stop stop-opacity="1" stop-color="rgb(56.097412%, 49.685669%, 47.663879%)" offset="0.570312"/><stop stop-opacity="1" stop-color="rgb(56.217957%, 49.885559%, 47.903442%)" offset="0.574219"/><stop stop-opacity="1" stop-color="rgb(56.340027%, 50.086975%, 48.144531%)" offset="0.578125"/><stop stop-opacity="1" stop-color="rgb(56.460571%, 50.286865%, 48.384094%)" offset="0.582031"/><stop stop-opacity="1" stop-color="rgb(56.581116%, 50.488281%, 48.625183%)" offset="0.585937"/><stop stop-opacity="1" stop-color="rgb(56.70166%, 50.688171%, 48.864746%)" offset="0.589844"/><stop stop-opacity="1" stop-color="rgb(56.82373%, 50.889587%, 49.105835%)" offset="0.59375"/><stop stop-opacity="1" stop-color="rgb(56.944275%, 51.089478%, 49.346924%)" offset="0.597656"/><stop stop-opacity="1" stop-color="rgb(57.066345%, 51.290894%, 49.588013%)" offset="0.601562"/><stop stop-opacity="1" stop-color="rgb(57.18689%, 51.490784%, 49.827576%)" offset="0.605469"/><stop stop-opacity="1" stop-color="rgb(57.307434%, 51.6922%, 50.068665%)" offset="0.609375"/><stop stop-opacity="1" stop-color="rgb(57.427979%, 51.89209%, 50.308228%)" offset="0.613281"/><stop stop-opacity="1" stop-color="rgb(57.550049%, 52.093506%, 50.549316%)" offset="0.617187"/><stop stop-opacity="1" stop-color="rgb(57.670593%, 52.293396%, 50.788879%)" offset="0.621094"/><stop stop-opacity="1" stop-color="rgb(57.791138%, 52.494812%, 51.029968%)" offset="0.625"/><stop stop-opacity="1" stop-color="rgb(57.911682%, 52.694702%, 51.271057%)" offset="0.628906"/><stop stop-opacity="1" stop-color="rgb(58.033752%, 52.896118%, 51.512146%)" offset="0.632812"/><stop stop-opacity="1" stop-color="rgb(58.154297%, 53.096008%, 51.751709%)" offset="0.636719"/><stop stop-opacity="1" stop-color="rgb(58.276367%, 53.297424%, 51.992798%)" offset="0.640625"/><stop stop-opacity="1" stop-color="rgb(58.396912%, 53.497314%, 52.232361%)" offset="0.644531"/><stop stop-opacity="1" stop-color="rgb(58.517456%, 53.69873%, 52.47345%)" offset="0.648437"/><stop stop-opacity="1" stop-color="rgb(58.638%, 53.900146%, 52.713013%)" offset="0.652344"/><stop stop-opacity="1" stop-color="rgb(58.760071%, 54.101562%, 52.954102%)" offset="0.65625"/><stop stop-opacity="1" stop-color="rgb(58.880615%, 54.301453%, 53.19519%)" offset="0.660156"/><stop stop-opacity="1" stop-color="rgb(59.00116%, 54.502869%, 53.436279%)" offset="0.664062"/><stop stop-opacity="1" stop-color="rgb(59.121704%, 54.702759%, 53.675842%)" offset="0.667969"/><stop stop-opacity="1" stop-color="rgb(59.243774%, 54.904175%, 53.916931%)" offset="0.671875"/><stop stop-opacity="1" stop-color="rgb(59.364319%, 55.104065%, 54.156494%)" offset="0.675781"/><stop stop-opacity="1" stop-color="rgb(59.486389%, 55.305481%, 54.397583%)" offset="0.679687"/><stop stop-opacity="1" stop-color="rgb(59.606934%, 55.505371%, 54.637146%)" offset="0.683594"/><stop stop-opacity="1" stop-color="rgb(59.727478%, 55.706787%, 54.878235%)" offset="0.6875"/><stop stop-opacity="1" stop-color="rgb(59.848022%, 55.906677%, 55.117798%)" offset="0.691406"/><stop stop-opacity="1" stop-color="rgb(59.970093%, 56.108093%, 55.358887%)" offset="0.695312"/><stop stop-opacity="1" stop-color="rgb(60.090637%, 56.307983%, 55.599976%)" offset="0.699219"/><stop stop-opacity="1" stop-color="rgb(60.212708%, 56.509399%, 55.841064%)" offset="0.703125"/><stop stop-opacity="1" stop-color="rgb(60.333252%, 56.70929%, 56.080627%)" offset="0.707031"/><stop stop-opacity="1" stop-color="rgb(60.453796%, 56.910706%, 56.321716%)" offset="0.710937"/><stop stop-opacity="1" stop-color="rgb(60.574341%, 57.110596%, 56.561279%)" offset="0.714844"/><stop stop-opacity="1" stop-color="rgb(60.696411%, 57.312012%, 56.802368%)" offset="0.71875"/><stop stop-opacity="1" stop-color="rgb(60.816956%, 57.511902%, 57.041931%)" offset="0.722656"/><stop stop-opacity="1" stop-color="rgb(60.9375%, 57.713318%, 57.28302%)" offset="0.726562"/><stop stop-opacity="1" stop-color="rgb(61.058044%, 57.913208%, 57.524109%)" offset="0.730469"/><stop stop-opacity="1" stop-color="rgb(61.180115%, 58.114624%, 57.765198%)" offset="0.734375"/><stop stop-opacity="1" stop-color="rgb(61.300659%, 58.314514%, 58.004761%)" offset="0.738281"/><stop stop-opacity="1" stop-color="rgb(61.422729%, 58.51593%, 58.24585%)" offset="0.742187"/><stop stop-opacity="1" stop-color="rgb(61.543274%, 58.71582%, 58.485413%)" offset="0.746094"/><stop stop-opacity="1" stop-color="rgb(61.663818%, 58.917236%, 58.726501%)" offset="0.75"/><stop stop-opacity="1" stop-color="rgb(61.784363%, 59.117126%, 58.966064%)" offset="0.753906"/><stop stop-opacity="1" stop-color="rgb(61.906433%, 59.318542%, 59.207153%)" offset="0.757812"/><stop stop-opacity="1" stop-color="rgb(62.026978%, 59.518433%, 59.448242%)" offset="0.761719"/><stop stop-opacity="1" stop-color="rgb(62.149048%, 59.719849%, 59.689331%)" offset="0.765625"/><stop stop-opacity="1" stop-color="rgb(62.269592%, 59.919739%, 59.928894%)" offset="0.769531"/><stop stop-opacity="1" stop-color="rgb(62.390137%, 60.121155%, 60.169983%)" offset="0.773437"/><stop stop-opacity="1" stop-color="rgb(62.510681%, 60.321045%, 60.409546%)" offset="0.777344"/><stop stop-opacity="1" stop-color="rgb(62.632751%, 60.522461%, 60.650635%)" offset="0.78125"/><stop stop-opacity="1" stop-color="rgb(62.753296%, 60.722351%, 60.890198%)" offset="0.785156"/><stop stop-opacity="1" stop-color="rgb(62.87384%, 60.923767%, 61.131287%)" offset="0.789062"/><stop stop-opacity="1" stop-color="rgb(62.994385%, 61.123657%, 61.372375%)" offset="0.792969"/><stop stop-opacity="1" stop-color="rgb(63.116455%, 61.325073%, 61.613464%)" offset="0.796875"/><stop stop-opacity="1" stop-color="rgb(63.237%, 61.524963%, 61.853027%)" offset="0.800781"/><stop stop-opacity="1" stop-color="rgb(63.35907%, 61.726379%, 62.094116%)" offset="0.804687"/><stop stop-opacity="1" stop-color="rgb(63.479614%, 61.92627%, 62.333679%)" offset="0.808594"/><stop stop-opacity="1" stop-color="rgb(63.600159%, 62.127686%, 62.574768%)" offset="0.8125"/><stop stop-opacity="1" stop-color="rgb(63.720703%, 62.327576%, 62.814331%)" offset="0.816406"/><stop stop-opacity="1" stop-color="rgb(63.842773%, 62.528992%, 63.05542%)" offset="0.820312"/><stop stop-opacity="1" stop-color="rgb(63.963318%, 62.728882%, 63.296509%)" offset="0.824219"/><stop stop-opacity="1" stop-color="rgb(64.083862%, 62.930298%, 63.537598%)" offset="0.828125"/><stop stop-opacity="1" stop-color="rgb(64.204407%, 63.130188%, 63.777161%)" offset="0.832031"/><stop stop-opacity="1" stop-color="rgb(64.326477%, 63.331604%, 64.01825%)" offset="0.835937"/><stop stop-opacity="1" stop-color="rgb(64.447021%, 63.531494%, 64.257812%)" offset="0.839844"/><stop stop-opacity="1" stop-color="rgb(64.569092%, 63.73291%, 64.498901%)" offset="0.84375"/><stop stop-opacity="1" stop-color="rgb(64.689636%, 63.9328%, 64.738464%)" offset="0.847656"/><stop stop-opacity="1" stop-color="rgb(64.810181%, 64.134216%, 64.979553%)" offset="0.851562"/><stop stop-opacity="1" stop-color="rgb(64.930725%, 64.334106%, 65.219116%)" offset="0.855469"/><stop stop-opacity="1" stop-color="rgb(65.052795%, 64.535522%, 65.460205%)" offset="0.859375"/><stop stop-opacity="1" stop-color="rgb(65.17334%, 64.735413%, 65.701294%)" offset="0.863281"/><stop stop-opacity="1" stop-color="rgb(65.29541%, 64.936829%, 65.942383%)" offset="0.867187"/><stop stop-opacity="1" stop-color="rgb(65.415955%, 65.136719%, 66.181946%)" offset="0.871094"/><stop stop-opacity="1" stop-color="rgb(65.536499%, 65.338135%, 66.423035%)" offset="0.875"/><stop stop-opacity="1" stop-color="rgb(65.657043%, 65.538025%, 66.662598%)" offset="0.878906"/><stop stop-opacity="1" stop-color="rgb(65.779114%, 65.739441%, 66.903687%)" offset="0.882812"/><stop stop-opacity="1" stop-color="rgb(65.899658%, 65.939331%, 67.14325%)" offset="0.886719"/><stop stop-opacity="1" stop-color="rgb(66.020203%, 66.140747%, 67.384338%)" offset="0.890625"/><stop stop-opacity="1" stop-color="rgb(66.140747%, 66.340637%, 67.625427%)" offset="0.894531"/><stop stop-opacity="1" stop-color="rgb(66.262817%, 66.542053%, 67.866516%)" offset="0.898437"/><stop stop-opacity="1" stop-color="rgb(66.383362%, 66.741943%, 68.106079%)" offset="0.902344"/><stop stop-opacity="1" stop-color="rgb(66.505432%, 66.943359%, 68.347168%)" offset="0.90625"/><stop stop-opacity="1" stop-color="rgb(66.625977%, 67.14325%, 68.586731%)" offset="0.910156"/><stop stop-opacity="1" stop-color="rgb(66.746521%, 67.344666%, 68.82782%)" offset="0.914062"/><stop stop-opacity="1" stop-color="rgb(66.867065%, 67.544556%, 69.067383%)" offset="0.917969"/><stop stop-opacity="1" stop-color="rgb(66.989136%, 67.745972%, 69.308472%)" offset="0.921875"/><stop stop-opacity="1" stop-color="rgb(67.10968%, 67.945862%, 69.549561%)" offset="0.925781"/><stop stop-opacity="1" stop-color="rgb(67.230225%, 68.147278%, 69.790649%)" offset="0.929687"/><stop stop-opacity="1" stop-color="rgb(67.350769%, 68.347168%, 70.030212%)" offset="0.933594"/><stop stop-opacity="1" stop-color="rgb(67.472839%, 68.548584%, 70.271301%)" offset="0.9375"/><stop stop-opacity="1" stop-color="rgb(67.593384%, 68.748474%, 70.510864%)" offset="0.941406"/><stop stop-opacity="1" stop-color="rgb(67.715454%, 68.94989%, 70.751953%)" offset="0.945312"/><stop stop-opacity="1" stop-color="rgb(67.835999%, 69.14978%, 70.991516%)" offset="0.949219"/><stop stop-opacity="1" stop-color="rgb(67.956543%, 69.351196%, 71.232605%)" offset="0.953125"/><stop stop-opacity="1" stop-color="rgb(68.077087%, 69.551086%, 71.473694%)" offset="0.957031"/><stop stop-opacity="1" stop-color="rgb(68.199158%, 69.752502%, 71.714783%)" offset="0.960937"/><stop stop-opacity="1" stop-color="rgb(68.319702%, 69.952393%, 71.954346%)" offset="0.964844"/><stop stop-opacity="1" stop-color="rgb(68.441772%, 70.153809%, 72.195435%)" offset="0.96875"/><stop stop-opacity="1" stop-color="rgb(68.562317%, 70.353699%, 72.434998%)" offset="0.972656"/><stop stop-opacity="1" stop-color="rgb(68.682861%, 70.555115%, 72.676086%)" offset="0.976562"/><stop stop-opacity="1" stop-color="rgb(68.803406%, 70.755005%, 72.915649%)" offset="0.980469"/><stop stop-opacity="1" stop-color="rgb(68.925476%, 70.956421%, 73.156738%)" offset="0.984375"/><stop stop-opacity="1" stop-color="rgb(69.046021%, 71.156311%, 73.397827%)" offset="0.988281"/><stop stop-opacity="1" stop-color="rgb(69.166565%, 71.357727%, 73.638916%)" offset="0.992187"/><stop stop-opacity="1" stop-color="rgb(69.287109%, 71.557617%, 73.878479%)" offset="0.996094"/><stop stop-opacity="1" stop-color="rgb(69.40918%, 71.759033%, 74.119568%)" offset="1"/></linearGradient><clipPath id="c8f0a4cebd"><rect x="0" width="273" y="0" height="273"/></clipPath><clipPath id="d112c3e880"><path d="M 2.023438 2.023438 L 373 2.023438 L 373 373 L 2.023438 373 Z M 2.023438 2.023438 " clip-rule="nonzero"/></clipPath><clipPath id="503dd7e26d"><path d="M 229 95.890625 L 294 95.890625 L 294 278.890625 L 229 278.890625 Z M 229 95.890625 " clip-rule="nonzero"/></clipPath><clipPath id="a7a19fb488"><path d="M 81 95.890625 L 146 95.890625 L 146 278.890625 L 81 278.890625 Z M 81 95.890625 " clip-rule="nonzero"/></clipPath></defs><g clip-path="url(#bffbd9981e)"><g clip-path="url(#238605599e)"><g transform="matrix(1, 0, 0, 1, 51, 51)"><g clip-path="url(#c8f0a4cebd)"><g clip-path="url(#3bf12ed924)"><g clip-path="url(#93d166df64)"><path fill="url(#66c5ec7e51)" d="M 0.382812 0.382812 L 0.382812 272.617188 L 272.617188 272.617188 L 272.617188 0.382812 Z M 0.382812 0.382812 " fill-rule="nonzero"/></g></g></g></g></g></g><g clip-path="url(#d112c3e880)"><path fill="#202020" d="M 345.90625 171.007812 C 345.324219 165.363281 344.429688 159.761719 343.265625 154.253906 L 366.5625 138.707031 L 363.785156 130.238281 L 361.050781 121.773438 L 333.050781 122.894531 C 330.765625 117.695312 328.167969 112.679688 325.34375 107.796875 L 342.683594 85.796875 L 337.441406 78.585938 L 332.199219 71.371094 L 305.902344 81.09375 C 304.019531 78.988281 302.09375 76.929688 300.078125 74.957031 C 298.0625 72.941406 296 71.015625 293.941406 69.132812 L 303.660156 42.835938 L 296.449219 37.59375 L 289.234375 32.351562 L 267.238281 49.601562 C 262.355469 46.777344 257.292969 44.222656 252.140625 41.894531 L 253.261719 13.9375 L 244.792969 11.160156 L 236.328125 8.382812 L 220.78125 31.679688 C 215.269531 30.515625 209.671875 29.617188 204.027344 29.035156 L 196.363281 2.066406 L 178.535156 2.066406 L 170.917969 29.035156 C 165.273438 29.617188 159.671875 30.515625 154.164062 31.679688 L 138.617188 8.382812 L 130.152344 11.160156 L 121.683594 13.9375 L 122.804688 41.9375 C 117.605469 44.222656 112.589844 46.820312 107.707031 49.644531 L 85.707031 32.308594 L 78.496094 37.546875 L 71.28125 42.789062 L 81.003906 69.085938 C 78.898438 70.96875 76.839844 72.894531 74.867188 74.910156 C 72.851562 76.929688 70.925781 78.988281 69.042969 81.050781 L 42.746094 71.328125 L 37.503906 78.539062 L 32.261719 85.753906 L 49.601562 107.75 C 46.777344 112.632812 44.222656 117.695312 41.894531 122.847656 L 13.894531 121.726562 L 11.117188 130.195312 L 8.339844 138.707031 L 31.636719 154.253906 C 30.46875 159.761719 29.574219 165.363281 28.992188 171.007812 L 2.023438 178.578125 L 2.023438 196.410156 L 28.992188 204.027344 C 29.574219 209.671875 30.46875 215.269531 31.636719 220.78125 L 8.339844 236.328125 L 11.117188 244.792969 L 13.894531 253.261719 L 41.894531 252.140625 C 44.222656 257.339844 46.777344 262.355469 49.601562 267.238281 L 32.261719 289.234375 L 37.503906 296.449219 L 42.746094 303.660156 L 69.042969 293.941406 C 70.925781 296.046875 72.851562 298.0625 74.867188 300.078125 C 76.882812 302.09375 78.945312 304.019531 81.003906 305.902344 L 71.28125 332.199219 L 78.496094 337.441406 L 85.707031 342.683594 L 107.707031 325.34375 C 112.589844 328.167969 117.652344 330.722656 122.804688 333.050781 L 121.683594 361.050781 L 130.152344 363.828125 L 138.664062 366.605469 L 154.207031 343.308594 C 159.71875 344.472656 165.320312 345.371094 170.964844 345.953125 L 178.578125 372.921875 L 196.410156 372.921875 L 204.027344 345.953125 C 209.671875 345.371094 215.269531 344.472656 220.78125 343.308594 L 236.328125 366.605469 L 244.792969 363.828125 L 253.261719 361.050781 L 252.140625 333.050781 C 257.339844 330.765625 262.355469 328.167969 267.238281 325.34375 L 289.234375 342.683594 L 296.449219 337.441406 L 303.660156 332.199219 L 293.941406 305.902344 C 296.046875 304.019531 298.105469 302.09375 300.078125 300.078125 C 302.09375 298.0625 304.019531 296 305.902344 293.941406 L 332.199219 303.660156 L 337.441406 296.449219 L 342.683594 289.234375 L 325.390625 267.285156 C 328.210938 262.402344 330.765625 257.339844 333.09375 252.1875 L 361.09375 253.304688 L 363.871094 244.839844 L 366.652344 236.371094 L 343.355469 220.824219 C 344.519531 215.316406 345.414062 209.714844 345.996094 204.070312 L 372.96875 196.453125 L 372.96875 178.625 Z M 187.449219 318.3125 C 115.230469 318.3125 56.679688 259.710938 56.679688 187.496094 C 56.679688 115.277344 115.230469 56.722656 187.449219 56.722656 C 259.667969 56.722656 318.222656 115.277344 318.222656 187.496094 C 318.222656 259.710938 259.667969 318.3125 187.449219 318.3125 Z M 187.449219 318.3125 " fill-opacity="1" fill-rule="nonzero"/></g><path fill="#202020" d="M 208.679688 188.027344 C 208.679688 188.71875 208.644531 189.414062 208.574219 190.101562 C 208.507812 190.792969 208.40625 191.480469 208.269531 192.160156 C 208.136719 192.839844 207.96875 193.511719 207.765625 194.175781 C 207.5625 194.839844 207.332031 195.492188 207.066406 196.132812 C 206.800781 196.773438 206.503906 197.398438 206.175781 198.011719 C 205.851562 198.625 205.492188 199.21875 205.109375 199.792969 C 204.722656 200.371094 204.308594 200.925781 203.871094 201.464844 C 203.429688 202 202.964844 202.511719 202.472656 203.003906 C 201.984375 203.496094 201.46875 203.960938 200.933594 204.398438 C 200.398438 204.839844 199.839844 205.253906 199.265625 205.636719 C 198.6875 206.023438 198.09375 206.378906 197.480469 206.707031 C 196.871094 207.035156 196.242188 207.328125 195.601562 207.59375 C 194.960938 207.859375 194.308594 208.09375 193.644531 208.296875 C 192.980469 208.496094 192.308594 208.664062 191.628906 208.800781 C 190.949219 208.9375 190.265625 209.039062 189.574219 209.105469 C 188.882812 209.171875 188.191406 209.207031 187.496094 209.207031 C 186.804688 209.207031 186.113281 209.171875 185.421875 209.105469 C 184.730469 209.039062 184.046875 208.9375 183.367188 208.800781 C 182.683594 208.664062 182.011719 208.496094 181.347656 208.296875 C 180.683594 208.09375 180.03125 207.859375 179.390625 207.59375 C 178.75 207.328125 178.125 207.035156 177.511719 206.707031 C 176.902344 206.378906 176.308594 206.023438 175.730469 205.636719 C 175.152344 205.253906 174.597656 204.839844 174.0625 204.398438 C 173.523438 203.960938 173.011719 203.496094 172.519531 203.003906 C 172.03125 202.511719 171.566406 202 171.125 201.464844 C 170.683594 200.925781 170.273438 200.371094 169.886719 199.792969 C 169.5 199.21875 169.144531 198.625 168.816406 198.011719 C 168.492188 197.398438 168.195312 196.773438 167.929688 196.132812 C 167.664062 195.492188 167.429688 194.839844 167.230469 194.175781 C 167.027344 193.511719 166.859375 192.839844 166.722656 192.160156 C 166.589844 191.480469 166.488281 190.792969 166.417969 190.101562 C 166.351562 189.414062 166.316406 188.71875 166.316406 188.027344 C 166.316406 187.332031 166.351562 186.640625 166.417969 185.949219 C 166.488281 185.261719 166.589844 184.574219 166.722656 183.894531 C 166.859375 183.214844 167.027344 182.542969 167.230469 181.878906 C 167.429688 181.214844 167.664062 180.5625 167.929688 179.921875 C 168.195312 179.28125 168.492188 178.65625 168.816406 178.042969 C 169.144531 177.429688 169.5 176.835938 169.886719 176.257812 C 170.273438 175.683594 170.683594 175.125 171.125 174.589844 C 171.566406 174.054688 172.03125 173.539062 172.519531 173.050781 C 173.011719 172.558594 173.523438 172.09375 174.0625 171.652344 C 174.597656 171.214844 175.152344 170.800781 175.730469 170.417969 C 176.308594 170.03125 176.902344 169.675781 177.511719 169.347656 C 178.125 169.019531 178.75 168.722656 179.390625 168.457031 C 180.03125 168.191406 180.683594 167.960938 181.347656 167.757812 C 182.011719 167.558594 182.683594 167.390625 183.367188 167.253906 C 184.046875 167.117188 184.730469 167.015625 185.421875 166.949219 C 186.113281 166.878906 186.804688 166.847656 187.496094 166.847656 C 188.191406 166.847656 188.882812 166.878906 189.574219 166.949219 C 190.265625 167.015625 190.949219 167.117188 191.628906 167.253906 C 192.308594 167.390625 192.980469 167.558594 193.644531 167.757812 C 194.308594 167.960938 194.960938 168.191406 195.601562 168.457031 C 196.242188 168.722656 196.871094 169.019531 197.480469 169.347656 C 198.09375 169.675781 198.6875 170.03125 199.265625 170.417969 C 199.839844 170.800781 200.398438 171.214844 200.933594 171.652344 C 201.46875 172.09375 201.984375 172.558594 202.472656 173.050781 C 202.964844 173.539062 203.429688 174.054688 203.871094 174.589844 C 204.308594 175.125 204.722656 175.683594 205.109375 176.257812 C 205.492188 176.835938 205.851562 177.429688 206.175781 178.042969 C 206.503906 178.65625 206.800781 179.28125 207.066406 179.921875 C 207.332031 180.5625 207.5625 181.214844 207.765625 181.878906 C 207.96875 182.542969 208.136719 183.214844 208.269531 183.894531 C 208.40625 184.574219 208.507812 185.261719 208.574219 185.949219 C 208.644531 186.640625 208.679688 187.332031 208.679688 188.027344 Z M 208.679688 188.027344 " fill-opacity="1" fill-rule="nonzero"/><path fill="#202020" d="M 229.859375 188.027344 C 229.859375 202.851562 222.445312 216.621094 209.738281 224.035156 L 220.328125 242.039062 C 239.390625 230.386719 251.039062 210.265625 251.039062 188.027344 C 251.039062 165.789062 238.332031 144.605469 219.269531 132.957031 L 208.679688 150.960938 C 221.386719 159.433594 229.859375 173.199219 229.859375 188.027344 Z M 229.859375 188.027344 " fill-opacity="1" fill-rule="nonzero"/><g clip-path="url(#503dd7e26d)"><path fill="#202020" d="M 272.21875 188.027344 C 272.21875 217.679688 256.332031 245.214844 230.917969 261.097656 L 241.507812 279.101562 C 273.277344 260.039062 293.398438 225.09375 293.398438 188.027344 C 293.398438 149.902344 273.277344 114.953125 240.449219 95.890625 L 229.859375 113.894531 C 256.332031 129.78125 272.21875 157.316406 272.21875 188.027344 Z M 272.21875 188.027344 " fill-opacity="1" fill-rule="nonzero"/></g><path fill="#202020" d="M 123.957031 188.027344 C 123.957031 210.265625 135.605469 230.386719 154.667969 242.039062 L 165.257812 224.035156 C 152.550781 216.621094 145.136719 202.851562 145.136719 188.027344 C 145.136719 173.199219 153.609375 159.433594 166.316406 150.960938 L 155.726562 132.957031 C 136.664062 144.605469 123.957031 165.789062 123.957031 188.027344 Z M 123.957031 188.027344 " fill-opacity="1" fill-rule="nonzero"/><g clip-path="url(#a7a19fb488)"><path fill="#202020" d="M 133.488281 279.101562 L 144.078125 261.097656 C 118.660156 245.214844 102.777344 217.679688 102.777344 188.027344 C 102.777344 157.316406 118.660156 129.78125 145.136719 114.953125 L 134.546875 95.890625 C 101.714844 114.953125 81.59375 149.902344 81.59375 188.027344 C 81.59375 225.09375 101.714844 260.039062 133.488281 279.101562 Z M 133.488281 279.101562 " fill-opacity="1" fill-rule="nonzero"/></g></svg>